<svg version="1.1" id="Layer_1" xmlns="http://www.w3.org/2000/svg" x="0" y="0" viewBox="0 0 960 560" enable-background="new 0 0 960 560" xml:space="preserve"><path fill="#fff" d="M491 271c0-14.4-11.6-26-26-26-4.7 0-9.2 1.3-13 3.5V223l-13 9.9V272c.5 13.9 11.9 25 26 25 14.4 0 26-11.6 26-26zm-26.5 13c-7.5 0-13.5-6-13.5-13.5s6-13.5 13.5-13.5 13.5 6 13.5 13.5-6 13.5-13.5 13.5zM495 263c-.7 0-1.4.1-2.1.1.7 2.5 1.1 5.2 1.1 7.9 0 1.7-.2 3.4-.5 5h1c7.5 0 13.5 6 13.5 13.5s-6 13.5-13.5 13.5c-5.7 0-10.6-3.5-12.5-8.5-3.7 2.7-8.2 4.5-13 5.2v37.4l13-8.1v-17.5c3.8 2.2 8.3 3.5 13 3.5 14.4 0 26-11.6 26-26s-11.6-26-26-26z"/></svg>