<?xml version="1.0" encoding="utf-8"?>
<!-- Generator: Adobe Illustrator 18.1.1, SVG Export Plug-In . SVG Version: 6.00 Build 0)  -->
<!DOCTYPE svg PUBLIC "-//W3C//DTD SVG 1.1//EN" "http://www.w3.org/Graphics/SVG/1.1/DTD/svg11.dtd">
<svg version="1.1" id="Layer_1" xmlns="http://www.w3.org/2000/svg" xmlns:xlink="http://www.w3.org/1999/xlink" x="0px" y="0px"
	 viewBox="0 0 960 560" enable-background="new 0 0 960 560" xml:space="preserve">
<path fill="#FFFFFF" d="M491,271c0-14.4-11.6-26-26-26c-4.7,0-9.2,1.3-13,3.5V223l-13,9.9V272l0,0c0.5,13.9,11.9,25,26,25
	C479.4,297,491,285.4,491,271z M464.5,284c-7.5,0-13.5-6-13.5-13.5c0-7.5,6-13.5,13.5-13.5c7.5,0,13.5,6,13.5,13.5
	C478,278,472,284,464.5,284z"/>
<path fill="#FFFFFF" d="M495,263c-0.7,0-1.4,0.1-2.1,0.1c0.7,2.5,1.1,5.2,1.1,7.9c0,1.7-0.2,3.4-0.5,5c0.3,0,0.6,0,1,0
	c7.5,0,13.5,6,13.5,13.5c0,7.5-6,13.5-13.5,13.5c-5.7,0-10.6-3.5-12.5-8.5c-3.7,2.7-8.2,4.5-13,5.2v37.4l13-8.1v-17.5
	c3.8,2.2,8.3,3.5,13,3.5c14.4,0,26-11.6,26-26S509.4,263,495,263z"/>
</svg>
